HIERARCHY
ROOT Hips
{
	OFFSET 0.000000 0.000000 0.000000
	CHANNELS 6 Xposition Yposition Zposition Zrotation Yrotation Xrotation 
	JOINT LowerBack
	{
		OFFSET 0.000000 0.000000 0.000000
		CHANNELS 3 Zrotation Yrotation Xrotation
		JOINT Spine
		{
			OFFSET 0.028270 2.035590 -0.193380
			CHANNELS 3 Zrotation Yrotation Xrotation
			JOINT Spine1
			{
				OFFSET 0.056720 2.048850 -0.042750
				CHANNELS 3 Zrotation Yrotation Xrotation
				JOINT Neck
				{
					OFFSET 0.000000 0.000000 0.000000
					CHANNELS 3 Zrotation Yrotation Xrotation
					JOINT Neck1
					{
						OFFSET -0.054170 1.746240 0.172020
						CHANNELS 3 Zrotation Yrotation Xrotation
						JOINT Head
						{
							OFFSET 0.104070 1.761360 -0.123970
							CHANNELS 3 Zrotation Yrotation Xrotation
							End Site
							{
								OFFSET 0.000000 0.000000 0.000000
							}
						}
					}
				}
				JOINT LeftShoulder
				{
					OFFSET 0.000000 0.000000 0.000000
					CHANNELS 3 Zrotation Yrotation Xrotation
					JOINT LeftArm
					{
						OFFSET 3.362410 1.200890 -0.311210
						CHANNELS 3 Zrotation Yrotation Xrotation
						JOINT LeftForeArm
						{
							OFFSET 4.983000 -0.000000 -0.000000
							CHANNELS 3 Zrotation Yrotation Xrotation
							JOINT LeftHand
							{
								OFFSET 3.483560 -0.000000 -0.000000
								CHANNELS 3 Zrotation Yrotation Xrotation
								JOINT LeftFingerBase
								{
									OFFSET 0.000000 0.000000 0.000000
									CHANNELS 3 Zrotation Yrotation Xrotation
									JOINT LeftHandIndex1
									{
										OFFSET 0.715260 -0.000000 -0.000000
										CHANNELS 3 Zrotation Yrotation Xrotation
										End Site
										{
											OFFSET 0.000000 0.000000 0.000000
										}
									}
								}
								JOINT LThumb
								{
									OFFSET 0.000000 0.000000 0.000000
									CHANNELS 3 Zrotation Yrotation Xrotation
									End Site
									{
										OFFSET 0.000000 0.000000 0.000000
									}
								}
							}
						}
					}
				}
				JOINT RightShoulder
				{
					OFFSET 0.000000 0.000000 0.000000
					CHANNELS 3 Zrotation Yrotation Xrotation
					JOINT RightArm
					{
						OFFSET -3.136600 1.374050 -0.404650
						CHANNELS 3 Zrotation Yrotation Xrotation
						JOINT RightForeArm
						{
							OFFSET -5.241900 -0.000000 -0.000000
							CHANNELS 3 Zrotation Yrotation Xrotation
							JOINT RightHand
							{
								OFFSET -3.444170 -0.000000 -0.000000
								CHANNELS 3 Zrotation Yrotation Xrotation
								JOINT RightFingerBase
								{
									OFFSET 0.000000 0.000000 0.000000
									CHANNELS 3 Zrotation Yrotation Xrotation
									JOINT RightHandIndex1
									{
										OFFSET -0.622530 -0.000000 -0.000000
										CHANNELS 3 Zrotation Yrotation Xrotation
										End Site
										{
											OFFSET 0.000000 0.000000 0.000000
										}
									}
								}
								JOINT RThumb
								{
									OFFSET 0.000000 0.000000 0.000000
									CHANNELS 3 Zrotation Yrotation Xrotation
									End Site
									{
										OFFSET 0.000000 0.000000 0.000000
									}
								}
							}
						}
					}
				}
			}
		}
	}
}
}
MOTION
Frames: 14
Frame Time: 0.008333
23.943970 16.214625 2.122810 53.769913 -85.956343 -39.114722 -7.063926 4.259927 -10.189720 -3.345363 4.678625 -5.045038 -8.662338 4.655202 1.050901 12.087359 -3.050962 -8.430101 -3.908773 -0.312340 -0.248649 0.000000 0.000000 0.000000 2.541446 29.748378 1.314928 -36.285192 12.591785 -22.798698 -5.135415 -7.245508 -0.005171 4.681746 1.561208 0.067592 -0.231723 -0.011765 -0.000000 0.000000 0.000000 0.000000 0.000000 0.000000 0.000000 19.387705 7.322717 -1.909512 75.008290 20.418776 26.755083 1.249978 69.118386 0.002327 -0.380317 8.072862 -0.027003 0.009078 -0.471148 0.000000 0.000000 0.000000 0.000000 0.000000 0.000000 0.000000 
23.749485 16.250337 2.108350 54.351347 -85.445047 -39.902084 -7.567952 4.145957 -10.040704 -3.442756 4.626721 -5.024035 -8.649140 4.602161 1.001899 12.114115 -3.024919 -8.399205 -3.922153 -0.313027 -0.245610 0.000000 0.000000 0.000000 2.421507 29.483477 1.307492 -36.038800 11.792216 -22.556768 -5.144551 -7.333392 -0.005559 4.662803 1.613443 0.069392 -0.230574 -0.009236 -0.000000 0.000000 0.000000 0.000000 0.000000 0.000000 0.000000 19.555420 7.268618 -1.883266 75.381035 19.771229 26.932461 1.273480 67.985649 0.002192 -0.424570 8.027503 -0.030254 0.011016 -0.462910 0.000000 0.000000 0.000000 0.000000 0.000000 0.000000 0.000000 
23.559781 16.286299 2.095754 54.861927 -84.950196 -40.643696 -8.037606 4.029771 -9.851939 -3.529576 4.566291 -4.992251 -8.631612 4.540793 0.962080 12.137838 -3.019654 -8.379316 -3.936875 -0.313637 -0.245720 0.000000 0.000000 0.000000 2.251540 29.218822 1.298554 -35.862578 10.990735 -22.240622 -5.156627 -7.498793 -0.005928 4.611544 1.674666 0.071194 -0.229342 -0.007318 -0.000000 0.000000 0.000000 0.000000 0.000000 0.000000 0.000000 19.732891 7.190034 -1.847881 75.704261 19.170024 27.130522 1.298934 66.794042 0.002315 -0.429915 7.985863 -0.030609 0.012580 -0.453949 0.000000 0.000000 0.000000 0.000000 0.000000 0.000000 0.000000 
23.374936 16.322371 2.085256 55.306376 -84.482925 -41.342381 -8.462127 3.913201 -9.628436 -3.603876 4.497716 -4.950347 -8.611626 4.471454 0.932650 12.159770 -3.038004 -8.371751 -3.953271 -0.314202 -0.249202 0.000000 0.000000 0.000000 2.025801 28.962451 1.286025 -35.746218 10.181122 -21.842175 -5.171875 -7.728005 -0.006247 4.532554 1.738723 0.072597 -0.228040 -0.006065 -0.000000 0.000000 0.000000 0.000000 0.000000 0.000000 0.000000 19.922335 7.084137 -1.803932 75.976608 18.617372 27.351921 1.327395 65.543786 0.002688 -0.397097 7.957120 -0.028268 0.013825 -0.444392 0.000000 0.000000 0.000000 0.000000 0.000000 0.000000 0.000000 
23.194831 16.358486 2.076542 55.747755 -84.045640 -42.062443 -8.844289 3.797007 -9.372277 -3.666533 4.421951 -4.900029 -8.590459 4.394855 0.909282 12.182105 -3.074060 -8.371391 -3.972326 -0.314879 -0.254639 0.000000 0.000000 0.000000 1.751449 28.697225 1.270987 -35.686678 9.389399 -21.368348 -5.189936 -8.018962 -0.006501 4.430720 1.802184 0.073603 -0.226681 -0.005506 -0.000000 0.000000 0.000000 0.000000 0.000000 0.000000 0.000000 20.127081 6.957270 -1.750818 76.198496 18.103450 27.583253 1.359344 64.237180 0.003290 -0.326352 7.946712 -0.023128 0.014715 -0.434399 0.000000 0.000000 0.000000 0.000000 0.000000 0.000000 0.000000 
23.019211 16.394609 2.069699 56.166149 -83.647815 -42.777639 -9.175966 3.682732 -9.092079 -3.716296 4.339922 -4.842994 -8.569518 4.311860 0.892013 12.205287 -3.125520 -8.377347 -3.994183 -0.315707 -0.261664 0.000000 0.000000 0.000000 1.429444 28.426723 1.252256 -35.676263 8.607602 -20.819270 -5.209833 -8.351458 -0.006662 4.320182 1.857476 0.074009 -0.225225 -0.005614 -0.000000 0.000000 0.000000 0.000000 0.000000 0.000000 0.000000 20.346015 6.811008 -1.689938 76.371337 17.621944 27.814886 1.395192 62.874584 0.004072 -0.223308 7.958096 -0.015688 0.015318 -0.424013 0.000000 0.000000 0.000000 0.000000 0.000000 0.000000 0.000000 
22.848126 16.430747 2.064482 56.583074 -83.291897 -43.506492 -9.458530 3.571244 -8.793850 -3.753887 4.253032 -4.781421 -8.549575 4.223705 0.877512 12.230019 -3.183880 -8.384869 -4.019260 -0.316786 -0.268956 0.000000 0.000000 0.000000 1.070328 28.140194 1.230838 -35.714337 7.844490 -20.206596 -5.230059 -8.710916 -0.006714 4.215897 1.899376 0.074017 -0.223613 -0.006313 -0.000000 0.000000 0.000000 0.000000 0.000000 0.000000 0.000000 20.577601 6.653535 -1.622276 76.498928 17.158425 28.024709 1.434679 61.458586 0.004974 -0.093367 7.990228 -0.006247 0.015627 -0.413279 -0.000000 0.000000 0.000000 0.000000 0.000000 0.000000 0.000000 
22.681103 16.466989 2.061149 56.946251 -82.988950 -44.183866 -9.679717 3.464026 -8.491068 -3.777224 4.162246 -4.717260 -8.531225 4.131416 0.868334 12.255107 -3.250761 -8.395212 -4.046731 -0.318054 -0.276631 0.000000 0.000000 0.000000 0.674325 27.848235 1.204867 -35.795540 7.075828 -19.531823 -5.249081 -9.070091 -0.006640 4.137049 1.921184 0.073526 -0.221761 -0.007500 -0.000000 0.000000 0.000000 0.000000 0.000000 0.000000 0.000000 20.815850 6.481208 -1.550093 76.584391 16.710475 28.206444 1.477806 59.987581 0.005918 0.049100 8.041477 0.004196 0.015868 -0.402125 -0.000000 0.000000 0.000000 0.000000 0.000000 0.000000 0.000000 
22.517650 16.503309 2.059711 57.236732 -82.744062 -44.780710 -9.834178 3.361933 -8.196955 -3.785449 4.068761 -4.656245 -8.514237 4.035535 0.852518 12.275997 -3.291175 -8.392314 -4.078099 -0.319837 -0.280174 0.000000 0.000000 0.000000 0.263386 27.511582 1.179847 -35.934448 6.358344 -18.832158 -5.265299 -9.437207 -0.006495 4.089456 1.933573 0.073238 -0.219653 -0.009007 -0.000000 0.000000 0.000000 0.000000 0.000000 0.000000 0.000000 21.048451 6.330448 -1.475154 76.634595 16.223592 28.290472 1.522544 58.482817 0.006890 0.216780 8.095815 0.016638 0.015524 -0.390485 -0.000000 0.000000 0.000000 0.000000 0.000000 0.000000 0.000000 
22.358169 16.539592 2.058424 57.686500 -82.525261 -45.545948 -9.975417 3.263636 -7.890126 -3.790463 3.976330 -4.590415 -8.498035 3.941042 0.847790 12.306858 -3.361313 -8.398125 -4.109498 -0.321509 -0.286217 0.000000 0.000000 0.000000 -0.152929 27.178625 1.150415 -36.120260 5.578311 -18.069096 -5.276482 -9.749437 -0.006173 4.104908 1.911183 0.072650 -0.216993 -0.010691 -0.000000 0.000000 0.000000 0.000000 0.000000 0.000000 0.000000 21.295309 6.140103 -1.396354 76.656493 15.783923 28.355458 1.570359 56.904586 0.007669 0.346659 8.168448 0.026385 0.015964 -0.378549 -0.000000 0.000000 0.000000 0.000000 0.000000 0.000000 0.000000 
22.201711 16.575875 2.058865 58.053175 -82.365186 -46.208025 -10.052050 3.171633 -7.607260 -3.781464 3.883869 -4.531302 -8.482038 3.845586 0.834818 12.330808 -3.396621 -8.386457 -4.143225 -0.323625 -0.286843 0.000000 0.000000 0.000000 -0.561038 26.793327 1.124184 -36.376507 4.840069 -17.300174 -5.282198 -10.043592 -0.005819 4.170570 1.885419 0.072762 -0.213923 -0.012351 -0.000000 0.000000 0.000000 0.000000 0.000000 0.000000 0.000000 21.521341 5.978063 -1.318058 76.656418 15.286823 28.283139 1.617776 55.301621 0.008346 0.478168 8.229743 0.036331 0.016029 -0.366051 -0.000000 0.000000 0.000000 0.000000 0.000000 0.000000 0.000000 
22.048401 16.612008 2.060237 58.434704 -82.247877 -46.866939 -10.088250 3.085081 -7.342637 -3.763772 3.793093 -4.477055 -8.465162 3.751240 0.817731 12.351784 -3.410266 -8.361887 -4.177622 -0.325969 -0.283553 0.000000 0.000000 0.000000 -0.948144 26.364175 1.101402 -36.706250 4.113836 -16.517866 -5.281520 -10.302344 -0.005436 4.292431 1.856543 0.073673 -0.210354 -0.013827 -0.000000 0.000000 0.000000 0.000000 0.000000 0.000000 0.000000 21.728561 5.829686 -1.240351 76.642242 14.751718 28.081473 1.664356 53.669137 0.008823 0.585966 8.279807 0.044578 0.016165 -0.353085 -0.000000 0.000000 0.000000 0.000000 0.000000 0.000000 0.000000 
21.897785 16.647803 2.062709 58.797797 -82.174948 -47.481791 -10.080524 3.003771 -7.103814 -3.736852 3.704010 -4.427477 -8.446464 3.658348 0.802616 12.368834 -3.415911 -8.330597 -4.210461 -0.328296 -0.277863 0.000000 0.000000 0.000000 -1.312592 25.909407 1.080595 -37.112566 3.365224 -15.720860 -5.274093 -10.508011 -0.005042 4.469797 1.825726 0.075284 -0.206281 -0.014944 -0.000000 0.000000 0.000000 0.000000 0.000000 0.000000 0.000000 21.909957 5.679274 -1.164867 76.618488 14.194860 27.763946 1.709850 52.005793 0.009045 0.648327 8.320720 0.049327 0.016744 -0.339670 -0.000000 0.000000 0.000000 0.000000 0.000000 0.000000 0.000000 
21.749990 16.683066 2.065910 59.174115 -82.136548 -48.089079 -10.040376 2.926557 -6.887736 -3.702976 3.616653 -4.383723 -8.425002 3.566708 0.782773 12.380469 -3.399114 -8.285242 -4.241938 -0.330691 -0.267890 0.000000 0.000000 0.000000 -1.640681 25.405424 1.066306 -37.604563 2.631207 -14.914781 -5.260197 -10.684422 -0.004711 4.686283 1.809049 0.078093 -0.201790 -0.015625 -0.000000 0.000000 0.000000 0.000000 0.000000 0.000000 0.000000 22.059675 5.543141 -1.091239 76.592343 13.596199 27.296695 1.752850 50.329072 0.009024 0.665977 8.348345 0.050577 0.017594 -0.325943 -0.000000 0.000000 0.000000 0.000000 0.000000 0.000000 0.000000 
